<svg xmlns="http://www.w3.org/2000/svg" viewBox="0 0 291 38.4"><path fill="#FFF" d="M291 38.4l-28.6-27.8V38H258l-.1-38 28.6 27.9V.5h4.5zM187.9.5h4.5V38h-4.5zM172.5.6h-27.9V5h11.7v33h4.5V5h11.7zM56.7 38l15.1-28 15.1 28H92L71.8.6 51.6 38zM134.5 38l-9.2-17.1c3.9-1.5 6.7-5.3 6.7-9.8C132 5.3 127.3.6 121.5.6h-18.1V38h4.5V21.6h12.8l8.8 16.4h5zM107.8 5h13.6c3.3 0 6.1 2.7 6.1 6.1s-2.7 6.1-6.1 6.1h-13.6V5zM226 10l12.7 23.5h-10.2l-2.4 4.4h20.1L226 .6 205.8 38h5.1zM41.1 38.2h-4.4V12.1L20.6 29.6 4.5 12.1v26.1H0V.6l20.6 22.3L41.1.6z"/></svg>
