<?xml version="1.0" encoding="utf-8"?>
<!-- Generator: Adobe Illustrator 20.1.0, SVG Export Plug-In . SVG Version: 6.00 Build 0)  -->
<!DOCTYPE svg PUBLIC "-//W3C//DTD SVG 1.1//EN" "http://www.w3.org/Graphics/SVG/1.1/DTD/svg11.dtd">
<svg version="1.1" id="Layer_1" xmlns="http://www.w3.org/2000/svg" xmlns:xlink="http://www.w3.org/1999/xlink" x="0px" y="0px"
	 viewBox="0 0 300 39.6" enable-background="new 0 0 300 39.6" xml:space="preserve">
<g>
	<g>
		<polygon fill="#FFFFFF" points="300,39.6 270.5,10.9 270.5,39.2 266,39.2 265.9,0 295.4,28.7 295.4,0.5 300,0.5 		"/>
		<rect x="193.7" y="0.6" fill="#FFFFFF" width="4.6" height="38.5"/>
		<polygon fill="#FFFFFF" points="177.9,0.6 149.2,0.6 149.2,5.2 161.2,5.2 161.2,39.2 165.8,39.2 165.8,5.2 177.9,5.2 		"/>
		<path fill="#FFFFFF" d="M138.7,39.2l-9.5-17.6c4-1.6,6.9-5.5,6.9-10.1c0-6-4.9-10.8-10.8-10.8h-18.6v38.5h4.6V22.3h13.2l0.7,1.4
			l8.4,15.5H138.7z M111.2,5.2h14c3.4,0,6.2,2.8,6.2,6.2s-2.8,6.2-6.2,6.2h-14V5.2z"/>
		<polygon fill="#FFFFFF" points="42.8,39.2 38.2,39.2 38.2,12 21.4,30.2 4.7,12 4.7,39.2 0,39.2 0,0 21.4,23.3 42.8,0 		"/>
		<polygon fill="#FFFFFF" points="74.2,0 74.2,0 74.2,0 53,39.2 58.3,39.2 74.2,9.8 74.2,9.8 74.2,9.8 90,39.2 95.3,39.2 		"/>
	</g>
	<polygon fill="#FFFFFF" points="233.1,0 233.1,0 233.1,0 211.9,39.2 217.2,39.2 233.1,9.8 233.1,9.8 233.1,9.8 246.4,34.6 
		233.2,34.6 230.8,39.2 248.9,39.2 250,39.2 254.2,39.2 	"/>
</g>
</svg>
