<?xml version="1.0" standalone="no"?>
<!DOCTYPE svg PUBLIC "-//W3C//DTD SVG 20010904//EN"
 "http://www.w3.org/TR/2001/REC-SVG-20010904/DTD/svg10.dtd">
<svg version="1.0" xmlns="http://www.w3.org/2000/svg"
 width="700.000000pt" height="700.000000pt" viewBox="0 0 700.000000 700.000000"
 preserveAspectRatio="xMidYMid meet">
<metadata>
Created by potrace 1.11, written by Peter Selinger 2001-2013
</metadata>
<g transform="translate(0.000000,700.000000) scale(0.100000,-0.100000)"
fill="#000000" stroke="none">
<path d="M3290 6994 c-19 -2 -87 -9 -150 -15 -578 -54 -1180 -280 -1660 -622
-310 -222 -615 -527 -837 -837 -342 -480 -557 -1051 -625 -1665 -19 -177 -17
-586 6 -760 124 -980 607 -1820 1379 -2399 411 -308 892 -525 1387 -626 278
-56 367 -64 710 -65 321 0 378 4 620 47 1429 249 2579 1399 2828 2828 43 245
47 298 46 625 0 338 -9 438 -66 710 -215 1045 -925 1956 -1893 2430 -342 168
-694 273 -1090 326 -142 19 -563 34 -655 23z m-85 -2544 c153 -283 283 -521
289 -528 9 -9 80 113 306 532 162 300 298 542 301 538 10 -11 1344 -2484 1347
-2499 3 -11 -122 -13 -668 -13 -534 0 -671 3 -667 12 3 7 27 54 54 103 l50 90
447 3 c408 2 448 4 442 18 -12 30 -989 1839 -1001 1852 -9 10 -138 -222 -577
-1030 l-566 -1043 -111 -3 c-69 -2 -111 1 -111 7 0 6 26 59 59 118 294 540
581 1076 581 1086 -1 19 -465 869 -474 869 -5 -1 -262 -468 -571 -1039 l-563
-1038 -111 -3 c-73 -2 -111 1 -111 8 0 6 304 573 676 1260 578 1068 679 1248
689 1233 6 -10 137 -250 290 -533z"/>
</g>
</svg>
