<?xml version="1.0" encoding="utf-8"?>
<!-- Generator: Adobe Illustrator 20.1.0, SVG Export Plug-In . SVG Version: 6.00 Build 0)  -->
<!DOCTYPE svg PUBLIC "-//W3C//DTD SVG 1.1//EN" "http://www.w3.org/Graphics/SVG/1.1/DTD/svg11.dtd">
<svg version="1.1" id="Layer_1" xmlns="http://www.w3.org/2000/svg" xmlns:xlink="http://www.w3.org/1999/xlink" x="0px" y="0px"
	 viewBox="0 0 32 32" enable-background="new 0 0 32 32" xml:space="preserve">
<g>
	<path d="M23.5,13.6c1.3,0.2,2.2,0.8,2.8,1.7c0.5,0.9,0.8,2.2,0.8,4.1c0,3.7-1.1,6.7-3.3,9.1c-2.2,2.4-5.1,3.5-8.5,3.5
		c-1.4,0-2.7-0.2-4-0.7C10,30.8,8.9,30.1,8,29.2c-1.1-1-1.8-2-2.4-3.1c-0.5-1.1-0.8-2.2-0.8-3.3c0-1.3,0.3-2.2,0.8-2.9
		c0.5-0.7,1.4-1.2,2.6-1.4C8,18,7.9,17.6,7.8,17.2c-0.1-0.4-0.2-0.6-0.2-0.8c0-0.7,0.3-1.3,1-2c0.7-0.7,1.4-1,2-1
		c0.3,0,0.5,0,0.8,0.1c0.3,0.1,0.6,0.3,1,0.5c-1.1-3.2-1.9-5.7-2.5-7.4C9.5,4.8,9.2,3.6,9.2,3c0-0.9,0.2-1.6,0.7-2.2
		C10.4,0.3,11,0,11.8,0c1.4,0,3.1,3.1,5.2,9.2c0.4,1.1,0.6,1.9,0.8,2.4c0.2-0.5,0.4-1.1,0.7-1.9c2.1-6.1,3.9-9.1,5.5-9.1
		c0.7,0,1.3,0.3,1.8,0.8c0.4,0.5,0.7,1.2,0.7,2c0,0.6-0.2,1.8-0.7,3.5C25.3,8.6,24.5,10.9,23.5,13.6z M7.8,22.6
		c0.2,0.2,0.5,0.6,0.9,1.1c1,1.3,1.9,2,2.7,2c0.3,0,0.5-0.1,0.7-0.3c0.2-0.2,0.3-0.4,0.3-0.5c0-0.2-0.1-0.6-0.4-1.1
		c-0.3-0.5-0.7-1.1-1.2-1.7c-0.6-0.7-1.1-1.3-1.5-1.6c-0.4-0.3-0.7-0.5-0.9-0.5c-0.5,0-1,0.3-1.4,0.8c-0.4,0.5-0.6,1.2-0.6,1.9
		c0,0.6,0.2,1.3,0.5,2c0.3,0.7,0.7,1.5,1.3,2.2c0.9,1.2,1.9,2,3.2,2.7c1.3,0.6,2.7,0.9,4.3,0.9c2.9,0,5.2-1.1,7.2-3.2
		c1.9-2.1,2.9-4.8,2.9-8c0-1-0.1-1.8-0.2-2.3c-0.1-0.6-0.4-1-0.7-1.3c-0.6-0.5-1.8-0.9-3.5-1.3c-1.7-0.4-3.5-0.6-5.4-0.6
		c-0.5,0-0.9,0.1-1.1,0.3c-0.2,0.2-0.3,0.5-0.3,0.9c0,1,0.6,1.7,1.7,2.2c1.1,0.4,2.9,0.7,5.4,0.7h0.9c0.2,0,0.4,0.1,0.5,0.2
		c0.1,0.2,0.2,0.4,0.3,0.7c-0.2,0.2-0.8,0.5-1.5,0.8c-0.8,0.3-1.4,0.6-1.8,0.9c-0.9,0.6-1.6,1.4-2.1,2.3c-0.5,0.9-0.8,1.7-0.8,2.5
		c0,0.5,0.1,1.1,0.3,1.7c0.2,0.7,0.3,1.1,0.3,1.3v0.2l0,0.2c-0.6,0-1.2-0.4-1.5-1.1c-0.4-0.7-0.6-1.7-0.6-2.8v-0.2
		c-0.1,0.1-0.2,0.2-0.3,0.2c-0.1,0-0.2,0.1-0.4,0.1c-0.1,0-0.3,0-0.4,0c-0.1,0-0.2-0.1-0.4-0.1c0,0.2,0.1,0.3,0.1,0.5
		c0,0.2,0,0.3,0,0.4c0,0.5-0.2,1-0.6,1.4c-0.4,0.4-0.9,0.6-1.5,0.6c-0.9,0-1.9-0.5-2.8-1.4c-1-0.9-1.4-1.8-1.4-2.6
		c0-0.2,0-0.3,0.1-0.4C7.7,22.8,7.7,22.7,7.8,22.6z M14.4,23.1c0.2,0,0.5-0.1,0.7-0.3c0.2-0.2,0.3-0.5,0.3-0.7
		c0-0.3-0.2-0.9-0.6-1.9c-0.4-1-0.9-2-1.5-3c-0.4-0.7-0.9-1.3-1.3-1.7c-0.4-0.4-0.8-0.6-1.2-0.6c-0.3,0-0.6,0.2-1,0.6
		c-0.4,0.4-0.6,0.8-0.6,1.1c0,0.4,0.2,0.9,0.5,1.6c0.4,0.7,0.9,1.5,1.5,2.2c0.6,0.9,1.3,1.5,1.8,2C13.6,22.9,14.1,23.1,14.4,23.1z
		 M16.5,12.5l-2.4-6.9c-0.6-1.7-1.1-2.9-1.4-3.4c-0.3-0.5-0.7-0.8-1.1-0.8c-0.3,0-0.6,0.1-0.7,0.4c-0.2,0.2-0.3,0.5-0.3,0.9
		c0,0.7,0.3,1.8,0.8,3.5c0.5,1.7,1.3,3.9,2.3,6.6c0.1-0.2,0.2-0.3,0.4-0.3c0.2-0.1,0.4-0.1,0.7-0.1c0.1,0,0.3,0,0.5,0
		C15.5,12.4,15.9,12.5,16.5,12.5z M19,19.2c-0.6,0-1.2-0.1-1.8-0.2c-0.6-0.1-1.1-0.2-1.6-0.4c0.2,0.5,0.4,0.9,0.6,1.4
		c0.2,0.5,0.3,0.9,0.5,1.4c0.4-0.4,0.7-0.8,1.1-1.2C18.2,19.8,18.6,19.5,19,19.2z M22,13.3c1-2.7,1.7-4.9,2.3-6.6
		c0.5-1.7,0.8-2.8,0.8-3.2c0-0.4-0.1-0.8-0.3-1c-0.2-0.2-0.4-0.4-0.8-0.4c-0.4,0-0.8,0.3-1.3,1c-0.4,0.7-0.9,1.8-1.4,3.3l-2.2,6.4
		L22,13.3z"/>
</g>
</svg>
