<svg xmlns="http://www.w3.org/2000/svg" viewBox="0 0 32 32"><path d="M23.5 13.6c1.3.2 2.2.8 2.8 1.7.5.9.8 2.2.8 4.1 0 3.7-1.1 6.7-3.3 9.1-2.2 2.4-5.1 3.5-8.5 3.5-1.4 0-2.7-.2-4-.7-1.3-.5-2.4-1.2-3.3-2.1-1.1-1-1.8-2-2.4-3.1-.5-1.1-.8-2.2-.8-3.3 0-1.3.3-2.2.8-2.9.5-.7 1.4-1.2 2.6-1.4-.2-.5-.3-.9-.4-1.3-.1-.4-.2-.6-.2-.8 0-.7.3-1.3 1-2s1.4-1 2-1c.3 0 .5 0 .8.1.3.1.6.3 1 .5-1.1-3.2-1.9-5.7-2.5-7.4-.4-1.8-.7-3-.7-3.6 0-.9.2-1.6.7-2.2.5-.5 1.1-.8 1.9-.8 1.4 0 3.1 3.1 5.2 9.2.4 1.1.6 1.9.8 2.4.2-.5.4-1.1.7-1.9C20.6 3.6 22.4.6 24 .6c.7 0 1.3.3 1.8.8.4.5.7 1.2.7 2 0 .6-.2 1.8-.7 3.5-.5 1.7-1.3 4-2.3 6.7zm-15.7 9c.2.2.5.6.9 1.1 1 1.3 1.9 2 2.7 2 .3 0 .5-.1.7-.3.2-.2.3-.4.3-.5 0-.2-.1-.6-.4-1.1-.3-.5-.7-1.1-1.2-1.7-.6-.7-1.1-1.3-1.5-1.6-.4-.3-.7-.5-.9-.5-.5 0-1 .3-1.4.8-.4.5-.6 1.2-.6 1.9 0 .6.2 1.3.5 2s.7 1.5 1.3 2.2c.9 1.2 1.9 2 3.2 2.7 1.3.6 2.7.9 4.3.9 2.9 0 5.2-1.1 7.2-3.2 1.9-2.1 2.9-4.8 2.9-8 0-1-.1-1.8-.2-2.3-.1-.6-.4-1-.7-1.3-.6-.5-1.8-.9-3.5-1.3s-3.5-.6-5.4-.6c-.5 0-.9.1-1.1.3-.2.2-.3.5-.3.9 0 1 .6 1.7 1.7 2.2 1.1.4 2.9.7 5.4.7h.9c.2 0 .4.1.5.2.1.2.2.4.3.7-.2.2-.8.5-1.5.8-.8.3-1.4.6-1.8.9-.9.6-1.6 1.4-2.1 2.3-.5.9-.8 1.7-.8 2.5 0 .5.1 1.1.3 1.7.2.7.3 1.1.3 1.3v.4c-.6 0-1.2-.4-1.5-1.1-.4-.7-.6-1.7-.6-2.8v-.2c-.1.1-.2.2-.3.2-.1 0-.2.1-.4.1h-.4c-.1 0-.2-.1-.4-.1 0 .2.1.3.1.5v.4c0 .5-.2 1-.6 1.4-.4.4-.9.6-1.5.6-.9 0-1.9-.5-2.8-1.4-1-.9-1.4-1.8-1.4-2.6 0-.2 0-.3.1-.4-.4-.5-.4-.6-.3-.7zm6.6.5c.2 0 .5-.1.7-.3.2-.2.3-.5.3-.7 0-.3-.2-.9-.6-1.9-.4-1-.9-2-1.5-3-.4-.7-.9-1.3-1.3-1.7-.4-.4-.8-.6-1.2-.6-.3 0-.6.2-1 .6-.4.4-.6.8-.6 1.1 0 .4.2.9.5 1.6.4.7.9 1.5 1.5 2.2.6.9 1.3 1.5 1.8 2 .6.5 1.1.7 1.4.7zm2.1-10.6l-2.4-6.9c-.6-1.7-1.1-2.9-1.4-3.4-.3-.5-.7-.8-1.1-.8-.3 0-.6.1-.7.4-.2.2-.3.5-.3.9 0 .7.3 1.8.8 3.5s1.3 3.9 2.3 6.6c.1-.2.2-.3.4-.3.2-.1.4-.1.7-.1h.5c.2 0 .6.1 1.2.1zm2.5 6.7c-.6 0-1.2-.1-1.8-.2-.6-.1-1.1-.2-1.6-.4.2.5.4.9.6 1.4.2.5.3.9.5 1.4.4-.4.7-.8 1.1-1.2.4-.4.8-.7 1.2-1zm3-5.9c1-2.7 1.7-4.9 2.3-6.6.5-1.7.8-2.8.8-3.2 0-.4-.1-.8-.3-1-.2-.2-.4-.4-.8-.4s-.8.3-1.3 1c-.4.7-.9 1.8-1.4 3.3l-2.2 6.4 2.9.5z"/></svg>
