<?xml version="1.0" encoding="utf-8"?>
<!-- Generator: Adobe Illustrator 20.1.0, SVG Export Plug-In . SVG Version: 6.00 Build 0)  -->
<!DOCTYPE svg PUBLIC "-//W3C//DTD SVG 1.1//EN" "http://www.w3.org/Graphics/SVG/1.1/DTD/svg11.dtd">
<svg version="1.1" id="Layer_1" xmlns="http://www.w3.org/2000/svg" xmlns:xlink="http://www.w3.org/1999/xlink" x="0px" y="0px"
	 viewBox="0 0 32 32" enable-background="new 0 0 32 32" xml:space="preserve">
<path d="M29.6,0h-28C0.5,0,0,0.6,0,1.7v28C0,30.8,0.5,32,1.6,32H17V20h-4v-5h4v-3.3C17,7.5,18.9,5,22.6,5C24.4,5,26,5,27,5v5h-2.4
	c-2,0-2.6,0.7-2.6,2.7V15h4.6l-1,5H22v12h7.6c1.1,0,2.4-1.2,2.4-2.3v-28C32,0.6,30.7,0,29.6,0z"/>
</svg>
