<svg xmlns="http://www.w3.org/2000/svg" viewBox="0 0 32 32"><g fill="#0D0D0D"><path d="M16 2.9c4.3 0 4.8 0 6.5.1 1.6.1 2.4.3 3 .6.7.3 1.3.6 1.8 1.2.6.6.9 1.1 1.2 1.8.2.5.5 1.4.5 2.9.1 1.7.1 2.2.1 6.5s0 4.8-.1 6.5c-.1 1.6-.3 2.4-.6 3-.3.7-.6 1.3-1.2 1.8-.6.6-1.1.9-1.8 1.2-.6.2-1.4.5-3 .6-1.7.1-2.2.1-6.5.1s-4.8 0-6.5-.1c-1.6-.1-2.4-.3-3-.6-.7-.3-1.3-.6-1.8-1.2-.6-.6-.9-1.1-1.2-1.8-.1-.6-.4-1.5-.4-3-.1-1.7-.1-2.2-.1-6.5s0-4.8.1-6.5c0-1.5.3-2.4.5-2.9.3-.7.6-1.3 1.2-1.8.6-.6 1.1-.9 1.8-1.2.6-.3 1.5-.6 3-.6 1.7-.1 2.2-.1 6.5-.1M16 0c-4.3 0-4.9 0-6.6.1-1.7.1-2.9.3-3.9.7-1.1.4-1.9 1-2.8 1.8-.9 1-1.5 1.9-1.9 2.9-.4 1-.7 2.2-.7 3.9C0 11.1 0 11.7 0 16s0 4.9.1 6.6c.1 1.7.3 2.9.7 3.9.4 1.1 1 1.9 1.8 2.8.9.9 1.8 1.4 2.8 1.8 1 .4 2.2.7 3.9.7 1.8.2 2.4.2 6.7.2s4.9 0 6.6-.1c1.7-.1 2.9-.3 3.9-.7 1.1-.4 1.9-1 2.8-1.8.9-.9 1.4-1.8 1.8-2.8.4-1 .7-2.2.7-3.9.2-1.8.2-2.4.2-6.7s0-4.9-.1-6.6c-.1-1.7-.3-2.9-.7-3.9-.4-1.1-1-1.9-1.8-2.8-.9-.9-1.8-1.4-2.8-1.8-1-.4-2.2-.7-3.9-.7C20.9 0 20.3 0 16 0z"/><path d="M16 7.8c-4.5 0-8.2 3.7-8.2 8.2s3.7 8.2 8.2 8.2 8.2-3.7 8.2-8.2-3.7-8.2-8.2-8.2zm0 13.5c-2.9 0-5.3-2.4-5.3-5.3s2.4-5.3 5.3-5.3 5.3 2.4 5.3 5.3-2.4 5.3-5.3 5.3z"/><circle cx="24.5" cy="7.5" r="1.9"/></g></svg>
